<svg xmlns="http://www.w3.org/2000/svg" viewBox="0 0 24 24" fill="currentColor" class="bi bi-shield-shaded">
  <path fill-rule="evenodd" d="M5.443 1.991a60.17 60.17 0 0 0-2.725.802.454.454 0 0 0-.315.366C1.87 7.056 3.1 9.9 4.567 11.773c.732.94 1.533 1.636 2.197 2.093.333.228.626.394.857.5.116.053.21.089.282.11A.73.73 0 0 0 8 14.5c0 .101-.034.195-.09.263a.88.88 0 0 0-.214.336c-.034.065-.058.119-.073.161a.613.613 0 0 0-.04.145c-.01.04-.018.075-.023.104a.25.25 0 0 0 .046.224c.04.038.087.061.13.076.043.015.084.024.12.026.037.003.073.003.11.003h.01a.95.95 0 0 0 .11-.003c.036-.002.077-.01.12-.026.043-.015.09-.038.13-.076a.25.25 0 0 0 .046-.224c-.005-.029-.013-.064-.023-.104a.613.613 0 0 0-.04-.145c-.015-.042-.039-.096-.073-.161a.88.88 0 0 0-.214-.336A.73.73 0 0 0 8 14.5c0-.101.034-.195.09-.263.056-.068.13-.12.214-.164.224-.133.554-.326.9-.533.67-.463 1.48-1.164 2.22-2.114a12.5 12.5 0 0 0 2.128-3.46c.32-.9.448-1.83.454-2.758a.454.454 0 0 0-.315-.366A60.17 60.17 0 0 0 8.001 2a60.17 60.17 0 0 0-2.558-.009zM8 1.033a46.16 46.16 0 0 1 2.44.032c.31.02.5.215.553.492.073.376.136.852.176 1.377.07.9.013 1.9-.22 2.847a11.52 11.52 0 0 1-1.944 3.24C8.5 9.61 7.82 10.21 7.33 10.58c-.32.24-.58.42-.75.545-.17.126-.3.22-.38.275-.08.056-.14.09-.17.11a.23.23 0 0 0-.05.082c0 .02.01.03.01.03H7.5c.01 0 .02-.01.03-.03a.23.23 0 0 0-.05-.082c-.03-.02-.09-.054-.17-.11-.08-.055-.21-.15-.38-.275-.17-.126-.43-.306-.75-.546C5.18 9.71 4.5 9.11 3.9 8.52a11.52 11.52 0 0 1-1.944-3.24C1.716 4.34 1.66 3.33 1.73 2.43c.04-.525.103-1 .176-1.377a.56.56 0 0 1 .553-.492A46.16 46.16 0 0 1 8 1.033z"/>
</svg> 